<?xml version="1.0"?>
<svg xmlns="http://www.w3.org/2000/svg" xmlns:xlink="http://www.w3.org/1999/xlink" version="1.1" id="Layer_1" x="0px" y="0px" viewBox="0 0 512 512" style="enable-background:new 0 0 512 512;" xml:space="preserve" width="512px" height="512px" class=""><g><g>
	<g>
		<path d="M376.661,393.213H59.038c-23.899,0-43.342-19.442-43.342-43.341V162.129c0-23.899,19.443-43.342,43.342-43.342h48.425    c4.334,0,7.848-3.513,7.848-7.848c0-4.335-3.514-7.848-7.848-7.848H59.038C26.484,103.091,0,129.575,0,162.129v187.743    c0,32.554,26.484,59.037,59.038,59.037h317.623c4.334,0,7.848-3.513,7.848-7.848S380.995,393.213,376.661,393.213z" data-original="#000000" class="active-path" data-old_color="#fd4500" fill="#fd4500"/>
	</g>
</g><g>
	<g>
		<path d="M452.962,103.091H138.855c-4.334,0-7.848,3.513-7.848,7.848c0,4.335,3.514,7.848,7.848,7.848h314.107    c23.899,0,43.342,19.443,43.342,43.342v187.743c0,23.899-19.443,43.341-43.342,43.341h-44.909c-4.334,0-7.848,3.513-7.848,7.848    s3.514,7.848,7.848,7.848h44.909c32.554,0,59.038-26.484,59.038-59.037V162.129C512,129.575,485.516,103.091,452.962,103.091z" data-original="#000000" class="active-path" data-old_color="#fd4500" fill="#fd4500"/>
	</g>
</g><g>
	<g>
		<path d="M452.963,139.715H59.038c-12.359,0-22.414,10.056-22.414,22.414v187.742c0,12.359,10.055,22.414,22.414,22.414h393.925    c12.359,0,22.413-10.055,22.413-22.414V162.129C475.376,149.77,465.322,139.715,452.963,139.715z M459.679,349.871    c0,3.704-3.013,6.718-6.717,6.718H59.038c-3.704,0-6.718-3.014-6.718-6.718v-29.906h407.359V349.871z M459.679,304.269H52.32    v-96.538h407.359V304.269z M459.679,192.035H52.32v-29.906c0-3.704,3.014-6.718,6.718-6.718h393.925    c3.703,0,6.716,3.014,6.716,6.718V192.035z" data-original="#000000" class="active-path" data-old_color="#fd4500" fill="#fd4500"/>
	</g>
</g><g>
	<g>
		<path d="M100.322,217.31H81.79l-12.892,80.573h11.626l2.187-14.618H98.25l2.187,14.618h12.777L100.322,217.31z M84.322,272.329    l6.101-40.747l6.101,40.747H84.322z" data-original="#000000" class="active-path" data-old_color="#fd4500" fill="#fd4500"/>
	</g>
</g><g>
	<g>
		<path d="M153.154,254.947c5.64-2.647,8.172-7.942,8.172-16.23v-2.878c0-12.431-5.64-18.532-18.762-18.532h-19.107v80.573h19.913    c12.661,0.001,19.222-6.675,19.222-19.106v-6.562C162.593,263.695,159.946,257.594,153.154,254.947z M136.119,228.819h6.101    c4.489,0,6.446,2.532,6.446,8.288v4.488c0,6.446-2.878,8.519-7.597,8.519h-4.95V228.819z M149.932,278.43    c0,5.985-2.302,7.942-6.561,7.942h-7.252v-24.748h5.64c5.755,0,8.172,2.302,8.172,9.784V278.43z" data-original="#000000" class="active-path" data-old_color="#fd4500" fill="#fd4500"/>
	</g>
</g><g>
	<g>
		<path d="M211.281,244.473v-7.827c0-12.892-6.446-20.258-18.877-20.258c-12.431,0-18.877,7.367-18.877,20.258v41.898    c0,12.892,6.445,20.258,18.877,20.258c12.431,0,18.877-7.367,18.877-20.258v-10.704H199.31v11.51c0,5.755-2.532,7.826-6.561,7.826    s-6.561-2.071-6.561-7.826v-43.51c0-5.755,2.532-7.942,6.561-7.942s6.561,2.187,6.561,7.942v8.633H211.281z" data-original="#000000" class="active-path" data-old_color="#fd4500" fill="#fd4500"/>
	</g>
</g><g>
	<g>
		<rect x="245.004" y="251.838" width="23.021" height="11.51" data-original="#000000" class="active-path" data-old_color="#fd4500" fill="#fd4500"/>
	</g>
</g><g>
	<g>
		<path d="M325.001,217.309c-1.957,5.41-4.144,10.129-13.929,10.129v8.978h9.785v61.466h12.661v-80.573H325.001z" data-original="#000000" class="active-path" data-old_color="#fd4500" fill="#fd4500"/>
	</g>
</g><g>
	<g>
		<path d="M365.862,286.371c-0.115-0.576-0.115-1.151-0.115-1.727c0-13.237,25.209-22.676,25.209-47.998    c0-12.892-6.446-20.258-18.877-20.258s-18.877,7.367-18.877,20.258v7.827h11.97v-8.633c0-5.755,2.532-7.942,6.562-7.942    c4.029,0,6.561,1.957,6.561,9.208c0,23.251-25.092,27.165-25.092,50.876v9.899h36.602v-11.51h-0.001H365.862z" data-original="#000000" class="active-path" data-old_color="#fd4500" fill="#fd4500"/>
	</g>
</g><g>
	<g>
		<path d="M440.219,238.718v-2.072c0-12.892-6.446-20.258-18.877-20.258c-12.431,0-18.877,7.367-18.877,20.258v4.374h11.97v-5.18    c0-5.755,2.533-7.942,6.562-7.942c4.029,0,6.561,1.957,6.561,9.208v4.488c0,6.446-2.878,8.519-7.597,8.519h-4.948v11.51h4.258    c5.755,0,8.288,2.764,8.288,10.244v6.331c0,7.136-2.532,9.093-6.561,9.093c-4.029,0-6.562-2.187-6.562-7.942v-7.482h-11.97v6.676    c0,12.892,6.446,20.258,18.877,20.258c12.431,0,18.877-7.367,18.877-20.258v-6.331c0-8.172-2.532-14.158-8.863-16.92    C437.456,252.761,440.219,247.351,440.219,238.718z" data-original="#000000" class="active-path" data-old_color="#fd4500" fill="#fd4500"/>
	</g>
</g><g>
	<g>
		<circle cx="128.938" cy="173.86" r="8.598" data-original="#000000" class="active-path" data-old_color="#fd4500" fill="#fd4500"/>
	</g>
</g><g>
	<g>
		<circle cx="128.938" cy="338.313" r="8.598" data-original="#000000" class="active-path" data-old_color="#fd4500" fill="#fd4500"/>
	</g>
</g><g>
	<g>
		<circle cx="383.067" cy="173.86" r="8.598" data-original="#000000" class="active-path" data-old_color="#fd4500" fill="#fd4500"/>
	</g>
</g><g>
	<g>
		<circle cx="383.067" cy="338.313" r="8.598" data-original="#000000" class="active-path" data-old_color="#fd4500" fill="#fd4500"/>
	</g>
</g></g> </svg>
